<mxfile host="app.diagrams.net" agent="Mozilla/5.0 (Macintosh; Intel Mac OS X 10_15_7) AppleWebKit/537.36 (KHTML, like Gecko) Chrome/139.0.0.0 Safari/537.36 Edg/139.0.0.0" version="28.2.3">
  <diagram name="Page-1" id="O5n5cSU-vgrGWfqKe5BD">
    <mxGraphModel dx="1836" dy="1322" grid="1" gridSize="10" guides="1" tooltips="1" connect="1" arrows="1" fold="1" page="1" pageScale="1" pageWidth="827" pageHeight="1169" math="0" shadow="0">
      <root>
        <mxCell id="0" />
        <mxCell id="1" parent="0" />
        <mxCell id="y15cLOJ_UMmO0RIoU_4j-4" value="" style="group" vertex="1" connectable="0" parent="1">
          <mxGeometry y="160" width="80" height="80" as="geometry" />
        </mxCell>
        <mxCell id="y15cLOJ_UMmO0RIoU_4j-1" value="" style="shape=actor;whiteSpace=wrap;html=1;" vertex="1" parent="y15cLOJ_UMmO0RIoU_4j-4">
          <mxGeometry x="20" width="40" height="60" as="geometry" />
        </mxCell>
        <mxCell id="y15cLOJ_UMmO0RIoU_4j-2" value="" style="shape=actor;whiteSpace=wrap;html=1;" vertex="1" parent="y15cLOJ_UMmO0RIoU_4j-4">
          <mxGeometry x="40" y="20" width="40" height="60" as="geometry" />
        </mxCell>
        <mxCell id="y15cLOJ_UMmO0RIoU_4j-3" value="" style="shape=actor;whiteSpace=wrap;html=1;" vertex="1" parent="y15cLOJ_UMmO0RIoU_4j-4">
          <mxGeometry y="20" width="40" height="60" as="geometry" />
        </mxCell>
        <mxCell id="y15cLOJ_UMmO0RIoU_4j-7" style="edgeStyle=orthogonalEdgeStyle;rounded=0;orthogonalLoop=1;jettySize=auto;html=1;" edge="1" parent="1" source="y15cLOJ_UMmO0RIoU_4j-5">
          <mxGeometry relative="1" as="geometry">
            <mxPoint x="320" y="210" as="targetPoint" />
          </mxGeometry>
        </mxCell>
        <mxCell id="y15cLOJ_UMmO0RIoU_4j-5" value="Infosys&lt;div&gt;IT Ticket System&lt;/div&gt;" style="rounded=1;whiteSpace=wrap;html=1;" vertex="1" parent="1">
          <mxGeometry x="140" y="180" width="120" height="60" as="geometry" />
        </mxCell>
        <mxCell id="y15cLOJ_UMmO0RIoU_4j-6" style="edgeStyle=orthogonalEdgeStyle;rounded=0;orthogonalLoop=1;jettySize=auto;html=1;entryX=0;entryY=0.5;entryDx=0;entryDy=0;" edge="1" parent="1" source="y15cLOJ_UMmO0RIoU_4j-2" target="y15cLOJ_UMmO0RIoU_4j-5">
          <mxGeometry relative="1" as="geometry" />
        </mxCell>
        <mxCell id="y15cLOJ_UMmO0RIoU_4j-9" value="&lt;span style=&quot;background-color: rgb(255, 255, 255);&quot;&gt;Collection of basic information&lt;/span&gt;&lt;div&gt;&lt;span style=&quot;background-color: rgb(255, 255, 255);&quot;&gt;1. Name&lt;/span&gt;&lt;/div&gt;&lt;div&gt;&lt;span style=&quot;background-color: rgb(255, 255, 255);&quot;&gt;2. Email&lt;/span&gt;&lt;/div&gt;&lt;div&gt;&lt;span style=&quot;background-color: rgb(255, 255, 255);&quot;&gt;3. Development Center&lt;/span&gt;&lt;/div&gt;&lt;div&gt;&lt;span style=&quot;background-color: rgb(255, 255, 255);&quot;&gt;&lt;b&gt;4. Asking user to describe the issue.&lt;/b&gt;&lt;/span&gt;&lt;/div&gt;" style="text;whiteSpace=wrap;html=1;" vertex="1" parent="1">
          <mxGeometry x="330" y="170" width="220" height="80" as="geometry" />
        </mxCell>
        <mxCell id="y15cLOJ_UMmO0RIoU_4j-16" style="edgeStyle=orthogonalEdgeStyle;rounded=0;orthogonalLoop=1;jettySize=auto;html=1;" edge="1" parent="1" source="y15cLOJ_UMmO0RIoU_4j-10">
          <mxGeometry relative="1" as="geometry">
            <mxPoint x="620" y="205" as="targetPoint" />
          </mxGeometry>
        </mxCell>
        <mxCell id="y15cLOJ_UMmO0RIoU_4j-10" value="" style="shape=curlyBracket;whiteSpace=wrap;html=1;rounded=1;flipH=1;labelPosition=right;verticalLabelPosition=middle;align=left;verticalAlign=middle;" vertex="1" parent="1">
          <mxGeometry x="540" y="160" width="20" height="90" as="geometry" />
        </mxCell>
        <mxCell id="y15cLOJ_UMmO0RIoU_4j-17" style="edgeStyle=orthogonalEdgeStyle;rounded=0;orthogonalLoop=1;jettySize=auto;html=1;" edge="1" parent="1" source="y15cLOJ_UMmO0RIoU_4j-13">
          <mxGeometry relative="1" as="geometry">
            <mxPoint x="820" y="200" as="targetPoint" />
          </mxGeometry>
        </mxCell>
        <mxCell id="y15cLOJ_UMmO0RIoU_4j-13" value="&lt;b&gt;Classifier Agent&lt;/b&gt;" style="rounded=1;whiteSpace=wrap;html=1;fillColor=#ffe6cc;strokeColor=#d79b00;" vertex="1" parent="1">
          <mxGeometry x="620" y="160" width="120" height="80" as="geometry" />
        </mxCell>
        <mxCell id="y15cLOJ_UMmO0RIoU_4j-14" value="&lt;span style=&quot;background-color: rgb(255, 255, 255);&quot;&gt;The work of this classifier agent is to classify the type of request, which is coming from the user.&lt;/span&gt;&lt;div&gt;&lt;span style=&quot;background-color: rgb(255, 255, 255);&quot;&gt;&lt;br&gt;&lt;/span&gt;&lt;/div&gt;&lt;div&gt;&lt;span style=&quot;background-color: rgb(255, 255, 255);&quot;&gt;Here we have used OpenAPI Function Calling - which takes the input and in response we get the required fields like&lt;br&gt;&lt;br&gt;&lt;/span&gt;&lt;/div&gt;&lt;div&gt;&lt;span style=&quot;background-color: rgb(255, 255, 255);&quot;&gt;1. Category of issue&lt;/span&gt;&lt;/div&gt;&lt;div&gt;&lt;span style=&quot;background-color: rgb(255, 255, 255);&quot;&gt;2. Severity&lt;/span&gt;&lt;/div&gt;&lt;div&gt;&lt;span style=&quot;background-color: rgb(255, 255, 255);&quot;&gt;3. Urgency&lt;/span&gt;&lt;/div&gt;&lt;div&gt;&lt;span style=&quot;background-color: rgb(255, 255, 255);&quot;&gt;4. Sub-Agent Name&lt;/span&gt;&lt;/div&gt;" style="text;whiteSpace=wrap;html=1;" vertex="1" parent="1">
          <mxGeometry x="590" y="250" width="220" height="80" as="geometry" />
        </mxCell>
        <mxCell id="y15cLOJ_UMmO0RIoU_4j-40" value="&lt;b&gt;&lt;font style=&quot;font-size: 16px;&quot;&gt;Problem Classification&lt;/font&gt;&lt;/b&gt;" style="text;html=1;align=center;verticalAlign=middle;whiteSpace=wrap;rounded=0;" vertex="1" parent="1">
          <mxGeometry x="570" y="120" width="240" height="30" as="geometry" />
        </mxCell>
        <mxCell id="y15cLOJ_UMmO0RIoU_4j-44" value="&lt;b&gt;&lt;font style=&quot;font-size: 16px;&quot;&gt;Query Collection&lt;/font&gt;&lt;/b&gt;" style="text;html=1;align=center;verticalAlign=middle;whiteSpace=wrap;rounded=0;" vertex="1" parent="1">
          <mxGeometry x="310" y="120" width="240" height="30" as="geometry" />
        </mxCell>
        <mxCell id="y15cLOJ_UMmO0RIoU_4j-62" value="Immediate" style="rounded=1;whiteSpace=wrap;html=1;fillColor=#f8cecc;strokeColor=#b85450;" vertex="1" parent="1">
          <mxGeometry x="860" y="150" width="120" height="30" as="geometry" />
        </mxCell>
        <mxCell id="y15cLOJ_UMmO0RIoU_4j-63" value="Today" style="rounded=1;whiteSpace=wrap;html=1;fillColor=#f8cecc;strokeColor=#b85450;" vertex="1" parent="1">
          <mxGeometry x="860" y="190" width="120" height="30" as="geometry" />
        </mxCell>
        <mxCell id="y15cLOJ_UMmO0RIoU_4j-64" value="Medium" style="rounded=1;whiteSpace=wrap;html=1;fillColor=#d5e8d4;strokeColor=#82b366;" vertex="1" parent="1">
          <mxGeometry x="1000" y="240" width="120" height="30" as="geometry" />
        </mxCell>
        <mxCell id="y15cLOJ_UMmO0RIoU_4j-65" value="Low" style="rounded=1;whiteSpace=wrap;html=1;fillColor=#d5e8d4;strokeColor=#82b366;" vertex="1" parent="1">
          <mxGeometry x="1000" y="280" width="120" height="30" as="geometry" />
        </mxCell>
        <mxCell id="y15cLOJ_UMmO0RIoU_4j-67" value="&lt;span style=&quot;font-size: 16px;&quot;&gt;&lt;b&gt;Severity&lt;/b&gt;&lt;/span&gt;" style="text;html=1;align=center;verticalAlign=middle;whiteSpace=wrap;rounded=0;" vertex="1" parent="1">
          <mxGeometry x="1015" y="100" width="90" height="30" as="geometry" />
        </mxCell>
        <mxCell id="y15cLOJ_UMmO0RIoU_4j-68" value="&lt;span style=&quot;font-size: 16px;&quot;&gt;&lt;b&gt;Urgency&lt;/b&gt;&lt;/span&gt;" style="text;html=1;align=center;verticalAlign=middle;whiteSpace=wrap;rounded=0;" vertex="1" parent="1">
          <mxGeometry x="870" y="100" width="90" height="30" as="geometry" />
        </mxCell>
        <mxCell id="y15cLOJ_UMmO0RIoU_4j-71" value="Medium" style="rounded=1;whiteSpace=wrap;html=1;fillColor=#d5e8d4;strokeColor=#82b366;" vertex="1" parent="1">
          <mxGeometry x="860" y="287.5" width="120" height="30" as="geometry" />
        </mxCell>
        <mxCell id="y15cLOJ_UMmO0RIoU_4j-72" value="Low" style="rounded=1;whiteSpace=wrap;html=1;fillColor=#d5e8d4;strokeColor=#82b366;" vertex="1" parent="1">
          <mxGeometry x="860" y="327.5" width="120" height="30" as="geometry" />
        </mxCell>
        <mxCell id="y15cLOJ_UMmO0RIoU_4j-73" value="High" style="rounded=1;whiteSpace=wrap;html=1;fillColor=#d5e8d4;strokeColor=#82b366;" vertex="1" parent="1">
          <mxGeometry x="860" y="240" width="120" height="35" as="geometry" />
        </mxCell>
        <mxCell id="y15cLOJ_UMmO0RIoU_4j-74" value="Critical" style="rounded=1;whiteSpace=wrap;html=1;fillColor=#f8cecc;strokeColor=#b85450;" vertex="1" parent="1">
          <mxGeometry x="1000" y="150" width="120" height="30" as="geometry" />
        </mxCell>
        <mxCell id="y15cLOJ_UMmO0RIoU_4j-75" value="High" style="rounded=1;whiteSpace=wrap;html=1;fillColor=#f8cecc;strokeColor=#b85450;" vertex="1" parent="1">
          <mxGeometry x="1000" y="190" width="120" height="30" as="geometry" />
        </mxCell>
        <mxCell id="y15cLOJ_UMmO0RIoU_4j-83" style="edgeStyle=orthogonalEdgeStyle;rounded=0;orthogonalLoop=1;jettySize=auto;html=1;exitX=0.1;exitY=0.5;exitDx=0;exitDy=0;exitPerimeter=0;entryX=0;entryY=0.5;entryDx=0;entryDy=0;" edge="1" parent="1" source="y15cLOJ_UMmO0RIoU_4j-76" target="y15cLOJ_UMmO0RIoU_4j-80">
          <mxGeometry relative="1" as="geometry" />
        </mxCell>
        <mxCell id="y15cLOJ_UMmO0RIoU_4j-76" value="" style="shape=curlyBracket;whiteSpace=wrap;html=1;rounded=1;flipH=1;labelPosition=right;verticalLabelPosition=middle;align=left;verticalAlign=middle;" vertex="1" parent="1">
          <mxGeometry x="1140" y="140" width="20" height="80" as="geometry" />
        </mxCell>
        <mxCell id="y15cLOJ_UMmO0RIoU_4j-77" value="" style="shape=curlyBracket;whiteSpace=wrap;html=1;rounded=1;flipH=1;labelPosition=right;verticalLabelPosition=middle;align=left;verticalAlign=middle;" vertex="1" parent="1">
          <mxGeometry x="1140" y="235" width="20" height="120" as="geometry" />
        </mxCell>
        <mxCell id="y15cLOJ_UMmO0RIoU_4j-86" style="edgeStyle=orthogonalEdgeStyle;rounded=0;orthogonalLoop=1;jettySize=auto;html=1;exitX=1;exitY=0.5;exitDx=0;exitDy=0;flowAnimation=1;" edge="1" parent="1" source="y15cLOJ_UMmO0RIoU_4j-37" target="y15cLOJ_UMmO0RIoU_4j-51">
          <mxGeometry relative="1" as="geometry" />
        </mxCell>
        <mxCell id="y15cLOJ_UMmO0RIoU_4j-87" style="edgeStyle=orthogonalEdgeStyle;rounded=0;orthogonalLoop=1;jettySize=auto;html=1;exitX=1;exitY=0.5;exitDx=0;exitDy=0;entryX=0;entryY=0.5;entryDx=0;entryDy=0;flowAnimation=1;" edge="1" parent="1" source="y15cLOJ_UMmO0RIoU_4j-37" target="y15cLOJ_UMmO0RIoU_4j-52">
          <mxGeometry relative="1" as="geometry" />
        </mxCell>
        <mxCell id="y15cLOJ_UMmO0RIoU_4j-88" style="edgeStyle=orthogonalEdgeStyle;rounded=0;orthogonalLoop=1;jettySize=auto;html=1;entryX=0;entryY=0.5;entryDx=0;entryDy=0;flowAnimation=1;" edge="1" parent="1" source="y15cLOJ_UMmO0RIoU_4j-37" target="y15cLOJ_UMmO0RIoU_4j-53">
          <mxGeometry relative="1" as="geometry" />
        </mxCell>
        <mxCell id="y15cLOJ_UMmO0RIoU_4j-89" style="edgeStyle=orthogonalEdgeStyle;rounded=0;orthogonalLoop=1;jettySize=auto;html=1;entryX=0;entryY=0.5;entryDx=0;entryDy=0;flowAnimation=1;" edge="1" parent="1" source="y15cLOJ_UMmO0RIoU_4j-37" target="y15cLOJ_UMmO0RIoU_4j-54">
          <mxGeometry relative="1" as="geometry" />
        </mxCell>
        <mxCell id="y15cLOJ_UMmO0RIoU_4j-90" style="edgeStyle=orthogonalEdgeStyle;rounded=0;orthogonalLoop=1;jettySize=auto;html=1;entryX=0;entryY=0.5;entryDx=0;entryDy=0;flowAnimation=1;" edge="1" parent="1" source="y15cLOJ_UMmO0RIoU_4j-37" target="y15cLOJ_UMmO0RIoU_4j-55">
          <mxGeometry relative="1" as="geometry" />
        </mxCell>
        <mxCell id="y15cLOJ_UMmO0RIoU_4j-37" value="" style="rounded=1;whiteSpace=wrap;html=1;" vertex="1" parent="1">
          <mxGeometry x="1260" y="252.5" width="233" height="95" as="geometry" />
        </mxCell>
        <mxCell id="y15cLOJ_UMmO0RIoU_4j-36" value="&lt;span style=&quot;background-color: rgb(255, 255, 255);&quot;&gt;Based on ticket type, we have defined certain mandatory fields, before providing any solution to the user, we ask for some mandatory data for generating the resolutuion&lt;/span&gt;" style="text;whiteSpace=wrap;html=1;" vertex="1" parent="1">
          <mxGeometry x="1281.5" y="260" width="190" height="80" as="geometry" />
        </mxCell>
        <mxCell id="y15cLOJ_UMmO0RIoU_4j-41" value="&lt;b&gt;&lt;font style=&quot;font-size: 16px;&quot;&gt;Mandatory Data Collection&lt;/font&gt;&lt;/b&gt;" style="text;html=1;align=center;verticalAlign=middle;whiteSpace=wrap;rounded=0;" vertex="1" parent="1">
          <mxGeometry x="1256.5" y="80" width="240" height="30" as="geometry" />
        </mxCell>
        <mxCell id="y15cLOJ_UMmO0RIoU_4j-51" value="&lt;b&gt;Security Issue Agent&lt;/b&gt;" style="rounded=1;whiteSpace=wrap;html=1;fillColor=#ffe6cc;strokeColor=#d79b00;" vertex="1" parent="1">
          <mxGeometry x="1613" y="260" width="120" height="80" as="geometry" />
        </mxCell>
        <mxCell id="y15cLOJ_UMmO0RIoU_4j-52" value="&lt;b&gt;Access Agent&lt;/b&gt;" style="rounded=1;whiteSpace=wrap;html=1;fillColor=#ffe6cc;strokeColor=#d79b00;" vertex="1" parent="1">
          <mxGeometry x="1613" y="370" width="120" height="80" as="geometry" />
        </mxCell>
        <mxCell id="y15cLOJ_UMmO0RIoU_4j-53" value="&lt;b&gt;Hardware Agent&lt;/b&gt;" style="rounded=1;whiteSpace=wrap;html=1;fillColor=#ffe6cc;strokeColor=#d79b00;" vertex="1" parent="1">
          <mxGeometry x="1613" y="480" width="120" height="80" as="geometry" />
        </mxCell>
        <mxCell id="y15cLOJ_UMmO0RIoU_4j-54" value="&lt;b&gt;Data Compliance Agent&lt;/b&gt;" style="rounded=1;whiteSpace=wrap;html=1;fillColor=#ffe6cc;strokeColor=#d79b00;" vertex="1" parent="1">
          <mxGeometry x="1613" y="590" width="120" height="80" as="geometry" />
        </mxCell>
        <mxCell id="y15cLOJ_UMmO0RIoU_4j-55" value="&lt;b&gt;Software Agent&lt;/b&gt;" style="rounded=1;whiteSpace=wrap;html=1;fillColor=#ffe6cc;strokeColor=#d79b00;" vertex="1" parent="1">
          <mxGeometry x="1613" y="700" width="120" height="80" as="geometry" />
        </mxCell>
        <mxCell id="y15cLOJ_UMmO0RIoU_4j-58" value="&lt;b&gt;&lt;font style=&quot;font-size: 16px;&quot;&gt;Agent Allocation Step&lt;/font&gt;&lt;/b&gt;" style="text;html=1;align=center;verticalAlign=middle;whiteSpace=wrap;rounded=0;" vertex="1" parent="1">
          <mxGeometry x="1540" y="80" width="240" height="30" as="geometry" />
        </mxCell>
        <mxCell id="y15cLOJ_UMmO0RIoU_4j-78" style="edgeStyle=orthogonalEdgeStyle;rounded=0;orthogonalLoop=1;jettySize=auto;html=1;exitX=0.1;exitY=0.5;exitDx=0;exitDy=0;exitPerimeter=0;entryX=-0.006;entryY=0.439;entryDx=0;entryDy=0;entryPerimeter=0;flowAnimation=1;" edge="1" parent="1" source="y15cLOJ_UMmO0RIoU_4j-77" target="y15cLOJ_UMmO0RIoU_4j-37">
          <mxGeometry relative="1" as="geometry" />
        </mxCell>
        <mxCell id="y15cLOJ_UMmO0RIoU_4j-81" value="" style="group" vertex="1" connectable="0" parent="1">
          <mxGeometry x="1260" y="132.5" width="233" height="95" as="geometry" />
        </mxCell>
        <mxCell id="y15cLOJ_UMmO0RIoU_4j-80" value="" style="rounded=1;whiteSpace=wrap;html=1;" vertex="1" parent="y15cLOJ_UMmO0RIoU_4j-81">
          <mxGeometry width="233" height="95" as="geometry" />
        </mxCell>
        <mxCell id="y15cLOJ_UMmO0RIoU_4j-79" value="&lt;span style=&quot;background-color: rgb(255, 255, 255);&quot;&gt;Apart from basic details, some additional fields are required by the user to fill in.&lt;/span&gt;" style="text;whiteSpace=wrap;html=1;" vertex="1" parent="y15cLOJ_UMmO0RIoU_4j-81">
          <mxGeometry x="18" y="5" width="190" height="80" as="geometry" />
        </mxCell>
        <mxCell id="y15cLOJ_UMmO0RIoU_4j-101" style="edgeStyle=orthogonalEdgeStyle;rounded=0;orthogonalLoop=1;jettySize=auto;html=1;entryX=0;entryY=0.5;entryDx=0;entryDy=0;" edge="1" parent="1" source="y15cLOJ_UMmO0RIoU_4j-91" target="y15cLOJ_UMmO0RIoU_4j-99">
          <mxGeometry relative="1" as="geometry" />
        </mxCell>
        <mxCell id="y15cLOJ_UMmO0RIoU_4j-91" value="&lt;b&gt;IT TEAM&lt;/b&gt;" style="rounded=1;whiteSpace=wrap;html=1;fillColor=#fff2cc;strokeColor=#d6b656;" vertex="1" parent="1">
          <mxGeometry x="1613" y="140" width="120" height="80" as="geometry" />
        </mxCell>
        <mxCell id="y15cLOJ_UMmO0RIoU_4j-93" style="edgeStyle=orthogonalEdgeStyle;rounded=0;orthogonalLoop=1;jettySize=auto;html=1;" edge="1" parent="1" source="y15cLOJ_UMmO0RIoU_4j-80" target="y15cLOJ_UMmO0RIoU_4j-91">
          <mxGeometry relative="1" as="geometry" />
        </mxCell>
        <mxCell id="y15cLOJ_UMmO0RIoU_4j-98" value="&lt;b&gt;&lt;font style=&quot;font-size: 16px;&quot;&gt;Ticket Creation Step&lt;/font&gt;&lt;/b&gt;" style="text;html=1;align=center;verticalAlign=middle;whiteSpace=wrap;rounded=0;" vertex="1" parent="1">
          <mxGeometry x="1848" y="80" width="240" height="30" as="geometry" />
        </mxCell>
        <mxCell id="y15cLOJ_UMmO0RIoU_4j-99" value="Task description" style="html=1;shadow=0;dashed=0;shape=mxgraph.atlassian.issue;issueType=story;issuePriority=blocker;issueStatus=inProgress;verticalAlign=top;align=left;whiteSpace=wrap;overflow=hidden;spacingTop=25;strokeColor=#A8ADB0;fillColor=#EEEEEE;fontSize=12;backgroundOutline=1;sketch=0;" vertex="1" parent="1">
          <mxGeometry x="1868" y="155" width="200" height="50" as="geometry" />
        </mxCell>
        <mxCell id="y15cLOJ_UMmO0RIoU_4j-100" value="ID" style="strokeColor=none;fillColor=none;part=1;resizable=0;align=left;autosize=1;points=[];deletable=0;connectable=0;" vertex="1" parent="y15cLOJ_UMmO0RIoU_4j-99">
          <mxGeometry width="60" height="20" relative="1" as="geometry">
            <mxPoint x="20" as="offset" />
          </mxGeometry>
        </mxCell>
        <mxCell id="y15cLOJ_UMmO0RIoU_4j-105" style="edgeStyle=orthogonalEdgeStyle;rounded=0;orthogonalLoop=1;jettySize=auto;html=1;exitX=0.1;exitY=0.5;exitDx=0;exitDy=0;exitPerimeter=0;entryX=0;entryY=0.5;entryDx=0;entryDy=0;" edge="1" parent="1" source="y15cLOJ_UMmO0RIoU_4j-102" target="y15cLOJ_UMmO0RIoU_4j-103">
          <mxGeometry relative="1" as="geometry" />
        </mxCell>
        <mxCell id="y15cLOJ_UMmO0RIoU_4j-102" value="" style="shape=curlyBracket;whiteSpace=wrap;html=1;rounded=1;flipH=1;labelPosition=right;verticalLabelPosition=middle;align=left;verticalAlign=middle;" vertex="1" parent="1">
          <mxGeometry x="1780" y="270" width="20" height="490" as="geometry" />
        </mxCell>
        <mxCell id="y15cLOJ_UMmO0RIoU_4j-103" value="Task description" style="html=1;shadow=0;dashed=0;shape=mxgraph.atlassian.issue;issueType=story;issuePriority=blocker;issueStatus=inProgress;verticalAlign=top;align=left;whiteSpace=wrap;overflow=hidden;spacingTop=25;strokeColor=#A8ADB0;fillColor=#EEEEEE;fontSize=12;backgroundOutline=1;sketch=0;" vertex="1" parent="1">
          <mxGeometry x="1868" y="490" width="200" height="50" as="geometry" />
        </mxCell>
        <mxCell id="y15cLOJ_UMmO0RIoU_4j-104" value="ID" style="strokeColor=none;fillColor=none;part=1;resizable=0;align=left;autosize=1;points=[];deletable=0;connectable=0;" vertex="1" parent="y15cLOJ_UMmO0RIoU_4j-103">
          <mxGeometry width="60" height="20" relative="1" as="geometry">
            <mxPoint x="20" as="offset" />
          </mxGeometry>
        </mxCell>
        <mxCell id="y15cLOJ_UMmO0RIoU_4j-106" value="&lt;font style=&quot;font-size: 16px;&quot;&gt;Ticket created with a resolution, user can work according to that and close the ticket.&lt;/font&gt;" style="text;html=1;align=left;verticalAlign=middle;whiteSpace=wrap;rounded=0;" vertex="1" parent="1">
          <mxGeometry x="1868" y="570" width="240" height="30" as="geometry" />
        </mxCell>
        <mxCell id="y15cLOJ_UMmO0RIoU_4j-107" value="&lt;font style=&quot;font-size: 16px;&quot;&gt;IT Team manually need to look into it.&lt;/font&gt;" style="text;html=1;align=left;verticalAlign=middle;whiteSpace=wrap;rounded=0;" vertex="1" parent="1">
          <mxGeometry x="1868" y="222.5" width="240" height="30" as="geometry" />
        </mxCell>
        <mxCell id="y15cLOJ_UMmO0RIoU_4j-122" style="edgeStyle=orthogonalEdgeStyle;rounded=0;orthogonalLoop=1;jettySize=auto;html=1;flowAnimation=1;" edge="1" parent="1" source="y15cLOJ_UMmO0RIoU_4j-109">
          <mxGeometry relative="1" as="geometry">
            <mxPoint x="2390" y="387.5" as="targetPoint" />
          </mxGeometry>
        </mxCell>
        <mxCell id="y15cLOJ_UMmO0RIoU_4j-125" style="edgeStyle=orthogonalEdgeStyle;rounded=0;orthogonalLoop=1;jettySize=auto;html=1;flowAnimation=1;" edge="1" parent="1" source="y15cLOJ_UMmO0RIoU_4j-109">
          <mxGeometry relative="1" as="geometry">
            <mxPoint x="2480" y="470" as="targetPoint" />
          </mxGeometry>
        </mxCell>
        <mxCell id="y15cLOJ_UMmO0RIoU_4j-109" value="Marked Resolved By User" style="rounded=1;whiteSpace=wrap;html=1;" vertex="1" parent="1">
          <mxGeometry x="2160" y="410" width="120" height="60" as="geometry" />
        </mxCell>
        <mxCell id="y15cLOJ_UMmO0RIoU_4j-121" style="edgeStyle=orthogonalEdgeStyle;rounded=0;orthogonalLoop=1;jettySize=auto;html=1;entryX=1;entryY=0.5;entryDx=0;entryDy=0;flowAnimation=1;" edge="1" parent="1" source="y15cLOJ_UMmO0RIoU_4j-110" target="y15cLOJ_UMmO0RIoU_4j-99">
          <mxGeometry relative="1" as="geometry">
            <Array as="points">
              <mxPoint x="2150" y="515" />
              <mxPoint x="2150" y="180" />
            </Array>
          </mxGeometry>
        </mxCell>
        <mxCell id="y15cLOJ_UMmO0RIoU_4j-110" value="Marked Escalated By User" style="rounded=1;whiteSpace=wrap;html=1;" vertex="1" parent="1">
          <mxGeometry x="2160" y="485" width="120" height="60" as="geometry" />
        </mxCell>
        <mxCell id="y15cLOJ_UMmO0RIoU_4j-116" style="edgeStyle=orthogonalEdgeStyle;rounded=0;orthogonalLoop=1;jettySize=auto;html=1;entryX=1;entryY=0.5;entryDx=0;entryDy=0;flowAnimation=1;" edge="1" parent="1" source="y15cLOJ_UMmO0RIoU_4j-111" target="y15cLOJ_UMmO0RIoU_4j-99">
          <mxGeometry relative="1" as="geometry">
            <Array as="points">
              <mxPoint x="2140" y="600" />
              <mxPoint x="2140" y="180" />
            </Array>
          </mxGeometry>
        </mxCell>
        <mxCell id="y15cLOJ_UMmO0RIoU_4j-111" value="Auto Escalate" style="rounded=1;whiteSpace=wrap;html=1;" vertex="1" parent="1">
          <mxGeometry x="2160" y="570" width="120" height="60" as="geometry" />
        </mxCell>
        <mxCell id="y15cLOJ_UMmO0RIoU_4j-120" style="edgeStyle=orthogonalEdgeStyle;rounded=0;orthogonalLoop=1;jettySize=auto;html=1;" edge="1" parent="1" source="y15cLOJ_UMmO0RIoU_4j-112" target="y15cLOJ_UMmO0RIoU_4j-118">
          <mxGeometry relative="1" as="geometry" />
        </mxCell>
        <mxCell id="y15cLOJ_UMmO0RIoU_4j-112" value="Add Comments" style="rounded=1;whiteSpace=wrap;html=1;" vertex="1" parent="1">
          <mxGeometry x="2160" y="650" width="120" height="60" as="geometry" />
        </mxCell>
        <mxCell id="y15cLOJ_UMmO0RIoU_4j-113" value="" style="shape=curlyBracket;whiteSpace=wrap;html=1;rounded=1;flipH=1;labelPosition=right;verticalLabelPosition=middle;align=left;verticalAlign=middle;rotation=-180;" vertex="1" parent="1">
          <mxGeometry x="2110" y="410" width="20" height="300" as="geometry" />
        </mxCell>
        <mxCell id="y15cLOJ_UMmO0RIoU_4j-114" style="edgeStyle=orthogonalEdgeStyle;rounded=0;orthogonalLoop=1;jettySize=auto;html=1;entryX=0.1;entryY=0.5;entryDx=0;entryDy=0;entryPerimeter=0;" edge="1" parent="1" source="y15cLOJ_UMmO0RIoU_4j-103" target="y15cLOJ_UMmO0RIoU_4j-113">
          <mxGeometry relative="1" as="geometry" />
        </mxCell>
        <mxCell id="y15cLOJ_UMmO0RIoU_4j-118" value="Comments&lt;br&gt;Table" style="shape=cylinder3;whiteSpace=wrap;html=1;boundedLbl=1;backgroundOutline=1;size=15;" vertex="1" parent="1">
          <mxGeometry x="2370" y="640" width="70" height="80" as="geometry" />
        </mxCell>
        <mxCell id="y15cLOJ_UMmO0RIoU_4j-124" value="Added To Knowledgebase Table" style="shape=cylinder3;whiteSpace=wrap;html=1;boundedLbl=1;backgroundOutline=1;size=15;" vertex="1" parent="1">
          <mxGeometry x="2325" y="287.5" width="130" height="90" as="geometry" />
        </mxCell>
        <mxCell id="y15cLOJ_UMmO0RIoU_4j-126" value="Tickets&lt;br&gt;Table" style="shape=cylinder3;whiteSpace=wrap;html=1;boundedLbl=1;backgroundOutline=1;size=15;" vertex="1" parent="1">
          <mxGeometry x="2481" y="430" width="70" height="80" as="geometry" />
        </mxCell>
      </root>
    </mxGraphModel>
  </diagram>
</mxfile>
